<svg xmlns="http://www.w3.org/2000/svg" width="161.663" height="200" viewBox="0 0 161.663 200"><path d="M575,3039.581a1.789,1.789,0,0,0-1.788,1.789v15.043h-57.49a1.788,1.788,0,0,0-1.788,1.788v22.686a1.788,1.788,0,0,0,1.788,1.788H673.8a1.788,1.788,0,0,0,1.788-1.788V3058.2a1.788,1.788,0,0,0-1.788-1.771h-57.5v-15.061a1.788,1.788,0,0,0-1.788-1.788Zm-53.277,52.644a1.788,1.788,0,0,0-1.788,1.789v143.779a1.788,1.788,0,0,0,1.788,1.788H667.794a1.788,1.788,0,0,0,1.788-1.789V3094.014a1.788,1.788,0,0,0-1.788-1.789ZM546.9,3121.2h14.306v89.415H546.9Zm40.713,0h14.306v89.415H587.618Zm40.712,0h14.307v89.415H628.33Z" transform="translate(-513.929 -3039.581)"/></svg>